<svg width="55" height="62" viewBox="0 0 55 62" fill="none" xmlns="http://www.w3.org/2000/svg">
<path d="M52.9767 0.105618H1.53909C0.689073 0.105618 0 0.799931 0 1.65641V60.3436C0 61.2001 0.689073 61.8944 1.53909 61.8944H52.9767C53.8267 61.8944 54.5158 61.2001 54.5158 60.3436V1.65641C54.5158 0.799931 53.8267 0.105618 52.9767 0.105618Z" fill="#5B4E4B"/>
<path d="M50.8912 2.06309H3.62455C2.77454 2.06309 2.08546 2.7574 2.08546 3.61388V41.8539C2.08546 42.7103 2.77454 43.4046 3.62455 43.4046H50.8912C51.7412 43.4046 52.4303 42.7103 52.4303 41.8539V3.61388C52.4303 2.7574 51.7412 2.06309 50.8912 2.06309Z" fill="white"/>
<path d="M19.6934 19.072C19.6934 16.9752 20.6203 15.0422 22.1717 13.4906H21.903C15.6146 13.4906 10.5179 17.2802 10.5179 21.958C10.5179 25.5265 13.4843 28.5764 17.6804 29.8269L17.4572 34.6306L20.749 30.4292H21.9031C24.8997 30.4292 27.6278 29.5677 29.6595 28.1571C24.003 27.3756 19.6972 23.6012 19.6972 19.072" fill="#BFAF98"/>
<path d="M36.7842 34.3637L32.2627 28.5917H31.4719C24.7786 28.5917 19.3339 24.4514 19.3339 19.3579C19.3339 14.2644 24.7824 10.1242 31.472 10.1242C38.169 10.1242 43.6137 14.2684 43.6137 19.3579C43.6137 23.0331 40.8327 26.2851 36.4777 27.7759L36.7842 34.3637ZM31.4756 11.6492C25.611 11.6492 20.8436 15.107 20.8436 19.358C20.8436 23.6088 25.611 27.0667 31.4757 27.0667H32.9967L35.0512 29.6973L34.9113 26.6626L35.4788 26.4949C39.5008 25.2978 42.1003 22.4957 42.1003 19.358C42.1003 15.1071 37.3327 11.6492 31.4756 11.6492Z" fill="#BB9F8B"/>
<path d="M10.4382 54.7888H11.0613V56.5045H10.4306V57.1566H7.14448V56.5045H3.09189V54.1445C3.28899 53.9459 3.48499 53.7444 3.6799 53.5399C3.87408 53.3361 4.06863 53.1335 4.26354 52.9319C4.45772 52.7304 4.65336 52.5292 4.85046 52.3284C5.04756 52.1269 5.24356 51.9242 5.43847 51.7205C5.63265 51.516 5.82829 51.3145 6.02539 51.1159H10.1743C9.49764 51.7278 8.82093 52.3387 8.14422 52.9485C7.46751 53.5575 6.7908 54.1684 6.11409 54.7811V54.7888H7.13682V54.7811C7.13682 54.6252 7.13536 54.4718 7.13244 54.321C7.13025 54.171 7.12915 54.0209 7.12915 53.8709L10.4306 52.0901V54.7888H10.4382ZM19.1906 54.8694V57.1566H11.3416V55.2555C11.4803 55.2394 11.6402 55.2191 11.8212 55.1949C12.0023 55.1713 12.1954 55.1434 12.4005 55.111C12.6056 55.0786 12.8173 55.0422 13.0356 55.0018C13.2546 54.9621 13.4707 54.9179 13.6838 54.8694H17.3565H19.1906ZM13.3236 54.9499C13.6221 54.88 13.9353 54.8035 14.2631 54.7204C14.5908 54.6373 14.8974 54.5421 15.1829 54.4347C15.4676 54.3273 15.6994 54.2078 15.8782 54.0761C16.0563 53.9444 16.1454 53.7981 16.1454 53.637C16.1454 53.5082 16.1041 53.4009 16.0216 53.3148C15.9392 53.2287 15.8326 53.1655 15.7019 53.125C15.5712 53.0853 15.434 53.0654 15.2902 53.0654C15.1413 53.0654 14.9975 53.0868 14.8588 53.1294C14.7201 53.1721 14.6069 53.2365 14.5193 53.3225C14.431 53.4086 14.3868 53.5134 14.3868 53.637C14.3868 53.7819 14.4507 53.9253 14.5784 54.0673C14.7069 54.21 14.9336 54.3295 15.2584 54.4258L11.2299 53.7341C11.1869 53.3523 11.2332 53.0099 11.369 52.7069C11.5055 52.4031 11.7095 52.1357 11.9811 51.9047C12.2527 51.6745 12.5709 51.484 12.9359 51.3332C13.3009 51.1832 13.6926 51.0692 14.1109 50.9912C14.5292 50.9132 14.9544 50.8742 15.3865 50.8742C15.8713 50.8742 16.3399 50.9184 16.7925 51.0066C17.2459 51.0956 17.6525 51.2273 18.0124 51.4016C18.3715 51.5759 18.6566 51.7948 18.8676 52.0581C19.0778 52.3214 19.1829 52.6274 19.1829 52.9761C19.1829 53.4431 18.9818 53.8271 18.5796 54.1279C18.1773 54.4288 17.5444 54.6465 16.6808 54.7811C15.818 54.915 14.6989 54.9713 13.3236 54.9499ZM23.8191 57.3982C23.3979 57.3982 23.0088 57.3714 22.6519 57.3177C22.2949 57.264 21.966 57.186 21.6653 57.0838C21.3638 56.9823 21.0948 56.859 20.8583 56.7141C20.621 56.5685 20.4115 56.4045 20.2297 56.2221C20.0487 56.0396 19.8983 55.8396 19.7786 55.6219C19.6589 55.4049 19.5694 55.1728 19.5103 54.9257C19.4519 54.6785 19.4227 54.4181 19.4227 54.1445C19.4227 53.6988 19.4946 53.2986 19.6384 52.9441C19.7822 52.5895 19.9863 52.2836 20.2505 52.0261C20.5141 51.7687 20.8283 51.5539 21.1933 51.3818C21.5583 51.2096 21.962 51.082 22.4044 50.9989C22.8468 50.9158 23.3184 50.8742 23.8191 50.8742C24.7039 50.8742 25.4554 50.9816 26.0737 51.1964C26.6921 51.4112 27.1808 51.7201 27.54 52.1232C27.8998 52.5255 28.125 53.014 28.2156 53.5884L24.8189 54.1445C24.8189 54.0209 24.7922 53.9146 24.7389 53.8256C24.6857 53.7374 24.6137 53.6664 24.5232 53.6127C24.432 53.559 24.3265 53.5189 24.2068 53.4924C24.0871 53.4652 23.9578 53.4516 23.8191 53.4516C23.6272 53.4516 23.4567 53.477 23.3078 53.5277C23.1589 53.5792 23.0402 53.6546 22.9519 53.7539C22.8643 53.8532 22.8205 53.9779 22.8205 54.1279C22.8205 54.2192 22.8362 54.3026 22.8676 54.3784C22.8997 54.4534 22.9453 54.5189 23.0045 54.5748C23.0629 54.6314 23.1333 54.677 23.2158 54.7116C23.2983 54.7469 23.3903 54.7738 23.4917 54.7922C23.5932 54.8113 23.7023 54.8208 23.8191 54.8208C24.1017 54.8208 24.3389 54.7631 24.5309 54.6476C24.7229 54.5321 24.8189 54.3644 24.8189 54.1445L28.2156 54.4909C28.1572 54.8881 28.028 55.2611 27.8279 55.6097C27.6279 55.9591 27.3509 56.268 26.9968 56.5365C26.6421 56.805 26.2022 57.0157 25.6774 57.1687C25.1525 57.3217 24.5331 57.3982 23.8191 57.3982ZM32.9317 51.1159H36.2496V57.1566H32.9317V55.1916C32.9317 55.1864 32.9306 55.1824 32.9284 55.1794C32.9255 55.1765 32.9215 55.175 32.9164 55.175H31.8203C31.8152 55.175 31.8126 55.1765 31.8126 55.1794V57.1566H28.4959V51.1159H31.8126V53.4803C31.8126 53.4825 31.8152 53.4836 31.8203 53.4836H32.9164C32.9215 53.4836 32.9255 53.4825 32.9284 53.4803C32.9306 53.4774 32.9317 53.4733 32.9317 53.4682V52.292V51.1159ZM38.1275 51.1159H43.0911C43.1875 51.4491 43.2824 51.7834 43.3758 52.1188C43.4686 52.4542 43.5616 52.7896 43.6551 53.125C43.7485 53.4612 43.843 53.7969 43.9387 54.1324C44.035 54.4678 44.1296 54.8032 44.2223 55.1386C44.3157 55.4747 44.4092 55.8105 44.5026 56.1459C44.596 56.4813 44.6906 56.8182 44.7862 57.1566H41.2209L41.0851 56.3677H39.9978L39.862 57.1566H36.4489C36.5452 56.8182 36.6398 56.4813 36.7325 56.1459C36.8259 55.8105 36.9194 55.4747 37.0128 55.1386C37.1062 54.8032 37.1993 54.4678 37.292 54.1324C37.3855 53.7969 37.4789 53.4612 37.5723 53.125C37.6658 52.7896 37.7589 52.4542 37.8516 52.1188C37.945 51.7834 38.037 51.4491 38.1275 51.1159ZM40.0941 55.7951V55.8039H40.9811C40.9869 55.8039 40.9898 55.8024 40.9898 55.7995V55.7951L40.957 55.5976C40.9358 55.4667 40.9081 55.3004 40.8738 55.0989C40.8387 54.8973 40.8026 54.6826 40.7654 54.4545C40.7281 54.2265 40.6935 54.0103 40.6613 53.8058C40.6292 53.602 40.6015 53.4358 40.5781 53.3071L40.542 53.1129H40.5332L40.5015 53.3071C40.4803 53.4358 40.4526 53.602 40.4182 53.8058C40.3832 54.0103 40.3471 54.2265 40.3098 54.4545C40.2726 54.6826 40.2379 54.8973 40.2058 55.0989C40.1737 55.3004 40.1471 55.4667 40.1259 55.5976L40.0941 55.7951ZM44.9296 51.1159H52.1326V53.5641H50.2054L50.2021 53.5686C50.1992 53.5715 50.1966 53.573 50.1944 53.573C50.1915 53.573 50.19 53.5755 50.19 53.5807V57.1566H46.8722V53.5763C46.8722 53.5741 46.8711 53.5715 46.8689 53.5686C46.866 53.5656 46.8631 53.5641 46.8601 53.5641H44.9296V51.1159Z" fill="white"/>
</svg>
