<svg width="105" height="119" viewBox="0 0 105 119" fill="none" xmlns="http://www.w3.org/2000/svg">
<path d="M102.029 0H2.96416C1.3271 0 0 1.33719 0 2.9867V116.013C0 117.663 1.3271 119 2.96416 119H102.029C103.666 119 104.993 117.663 104.993 116.013V2.9867C104.993 1.33719 103.666 0 102.029 0Z" fill="#5B4E4B"/>
<path d="M98.0122 3.7699H6.98057C5.34352 3.7699 4.01642 5.10709 4.01642 6.75659V80.4036C4.01642 82.0531 5.34352 83.3903 6.98057 83.3903H98.0122C99.6493 83.3903 100.976 82.0531 100.976 80.4036V6.75659C100.976 5.10709 99.6493 3.7699 98.0122 3.7699Z" fill="white"/>
<path d="M37.9278 36.5277C37.9278 32.4893 39.713 28.7667 42.7008 25.7784H42.1833C30.0724 25.7784 20.2567 33.0769 20.2567 42.0859C20.2567 48.9585 25.9696 54.8324 34.051 57.2408L33.621 66.4922L39.9608 58.4008H42.1835C47.9547 58.4008 53.2087 56.7414 57.1217 54.0247C46.2277 52.5196 37.9352 45.2505 37.9352 36.5277" fill="#BFAF98"/>
<path d="M70.8433 65.9782L62.1353 54.8617H60.6122C47.7215 54.8617 37.2355 46.888 37.2355 37.0783C37.2355 27.2686 47.7289 19.2949 60.6125 19.2949C73.5104 19.2949 83.9963 27.2763 83.9963 37.0783C83.9963 44.1564 78.6404 50.4196 70.253 53.2906L70.8433 65.9782ZM60.6194 22.232C49.3247 22.232 40.143 28.8914 40.143 37.0785C40.143 45.2652 49.3247 51.9249 60.6196 51.9249H63.5489L67.5057 56.9911L67.2362 51.1465L68.3293 50.8236C76.0752 48.518 81.0817 43.1214 81.0817 37.0785C81.0817 28.8917 71.8996 22.232 60.6194 22.232Z" fill="#BB9F8B"/>
<path d="M20.1032 105.315H21.3032V108.62H20.0885V109.875H13.7597V108.62H5.95477V104.074C6.33437 103.692 6.71186 103.304 7.08724 102.91C7.46121 102.518 7.83589 102.127 8.21127 101.739C8.58525 101.351 8.96203 100.963 9.34163 100.577C9.72123 100.189 10.0987 99.7983 10.4741 99.4059C10.8481 99.0121 11.2249 98.624 11.6045 98.2415H19.595C18.2917 99.4201 16.9884 100.597 15.6851 101.771C14.3819 102.944 13.0786 104.12 11.7753 105.3V105.315H13.745V105.3C13.745 105 13.7422 104.705 13.7365 104.414C13.7323 104.125 13.7302 103.836 13.7302 103.547L20.0885 100.118V105.315H20.1032ZM36.9595 105.47V109.875H21.8431V106.214C22.1102 106.183 22.4181 106.144 22.7668 106.097C23.1154 106.052 23.4873 105.998 23.8823 105.936C24.2774 105.873 24.6851 105.803 25.1055 105.725C25.5273 105.649 25.9434 105.564 26.354 105.47H33.4271H36.9595ZM25.6601 105.626C26.2352 105.491 26.8383 105.344 27.4696 105.184C28.1008 105.024 28.6913 104.84 29.241 104.633C29.7893 104.426 30.2357 104.196 30.5801 103.943C30.9232 103.689 31.0947 103.407 31.0947 103.097C31.0947 102.849 31.0153 102.642 30.8564 102.476C30.6975 102.311 30.4923 102.189 30.2406 102.111C29.989 102.034 29.7246 101.996 29.4477 101.996C29.1609 101.996 28.8839 102.037 28.6168 102.119C28.3497 102.202 28.1317 102.326 27.963 102.491C27.7929 102.657 27.7079 102.859 27.7079 103.097C27.7079 103.376 27.8309 103.652 28.0769 103.926C28.3243 104.2 28.7609 104.431 29.3865 104.616L21.628 103.284C21.545 102.549 21.6343 101.889 21.8958 101.306C22.1587 100.721 22.5516 100.206 23.0746 99.7608C23.5977 99.3174 24.2106 98.9505 24.9136 98.6601C25.6165 98.3711 26.3708 98.1515 27.1764 98.0014C27.982 97.8512 28.801 97.7761 29.6333 97.7761C30.5668 97.7761 31.4694 97.8611 32.3411 98.0311C33.2141 98.2025 33.9972 98.4561 34.6903 98.7918C35.3821 99.1276 35.9311 99.549 36.3374 100.056C36.7423 100.563 36.9447 101.153 36.9447 101.824C36.9447 102.724 36.5574 103.463 35.7828 104.043C35.0081 104.622 33.7892 105.041 32.126 105.3C30.4642 105.558 28.3089 105.667 25.6601 105.626ZM45.8737 110.341C45.0625 110.341 44.3132 110.289 43.6257 110.186C42.9382 110.082 42.3048 109.932 41.7256 109.735C41.1449 109.54 40.6268 109.302 40.1713 109.023C39.7144 108.743 39.3109 108.427 38.9608 108.076C38.6122 107.724 38.3225 107.339 38.092 106.92C37.8614 106.502 37.6892 106.055 37.5753 105.579C37.4628 105.103 37.4066 104.601 37.4066 104.074C37.4066 103.216 37.5451 102.445 37.822 101.762C38.099 101.08 38.492 100.49 39.0009 99.9945C39.5084 99.4987 40.1137 99.0851 40.8166 98.7536C41.5196 98.4221 42.2971 98.1763 43.1491 98.0162C44.001 97.8562 44.9093 97.7761 45.8737 97.7761C47.5777 97.7761 49.0251 97.9829 50.2159 98.3966C51.4067 98.8102 52.348 99.4052 53.0397 100.182C53.7328 100.956 54.1665 101.897 54.3409 103.003L47.7991 104.074C47.7991 103.836 47.7478 103.632 47.6452 103.46C47.5426 103.29 47.4041 103.154 47.2297 103.05C47.054 102.947 46.8508 102.87 46.6203 102.819C46.3897 102.766 46.1409 102.74 45.8737 102.74C45.504 102.74 45.1757 102.789 44.8889 102.887C44.6021 102.986 44.3736 103.131 44.2035 103.322C44.0348 103.513 43.9504 103.754 43.9504 104.043C43.9504 104.218 43.9807 104.379 44.0411 104.525C44.103 104.669 44.1908 104.795 44.3047 104.903C44.4172 105.012 44.5529 105.1 44.7117 105.167C44.8706 105.235 45.0478 105.286 45.2432 105.322C45.4386 105.359 45.6488 105.377 45.8737 105.377C46.4178 105.377 46.8747 105.266 47.2445 105.043C47.6143 104.821 47.7991 104.498 47.7991 104.074L54.3409 104.742C54.2284 105.507 53.9796 106.225 53.5943 106.896C53.2091 107.569 52.6756 108.164 51.9937 108.681C51.3104 109.198 50.4634 109.604 49.4525 109.899C48.4416 110.193 47.2487 110.341 45.8737 110.341ZM63.4238 98.2415H69.8137V109.875H63.4238V106.091C63.4238 106.081 63.4217 106.073 63.4175 106.068C63.4119 106.062 63.4041 106.059 63.3943 106.059H61.2833C61.2735 106.059 61.2685 106.062 61.2685 106.068V109.875H54.8808V98.2415H61.2685V102.795C61.2685 102.799 61.2735 102.802 61.2833 102.802H63.3943C63.4041 102.802 63.4119 102.799 63.4175 102.795C63.4217 102.79 63.4238 102.782 63.4238 102.772V100.507V98.2415ZM73.4305 98.2415H82.99C83.1756 98.8832 83.3584 99.5271 83.5383 100.173C83.7169 100.819 83.8961 101.465 84.0761 102.111C84.256 102.758 84.4381 103.405 84.6223 104.051C84.8078 104.697 84.9899 105.343 85.1685 105.989C85.3484 106.636 85.5284 107.283 85.7083 107.929C85.8883 108.575 86.0704 109.224 86.2545 109.875H79.388L79.1265 108.356H77.0324L76.7709 109.875H70.1975C70.3831 109.224 70.5652 108.575 70.7437 107.929C70.9237 107.283 71.1037 106.636 71.2836 105.989C71.4636 105.343 71.6428 104.697 71.8214 104.051C72.0013 103.405 72.1813 102.758 72.3613 102.111C72.5412 101.465 72.7205 100.819 72.899 100.173C73.079 99.5271 73.2561 98.8832 73.4305 98.2415ZM77.218 107.253V107.27H78.9262C78.9374 107.27 78.9431 107.267 78.9431 107.262V107.253L78.8798 106.873C78.839 106.621 78.7856 106.301 78.7195 105.912C78.652 105.524 78.5824 105.111 78.5107 104.671C78.439 104.232 78.3723 103.816 78.3104 103.422C78.2485 103.03 78.1951 102.709 78.1501 102.462L78.0805 102.088H78.0637L78.0025 102.462C77.9617 102.709 77.9083 103.03 77.8422 103.422C77.7747 103.816 77.7051 104.232 77.6334 104.671C77.5617 105.111 77.495 105.524 77.4331 105.912C77.3712 106.301 77.3199 106.621 77.2792 106.873L77.218 107.253ZM86.5308 98.2415H100.403V102.957H96.6914L96.6851 102.965C96.6794 102.971 96.6745 102.974 96.6703 102.974C96.6647 102.974 96.6619 102.979 96.6619 102.989V109.875H90.272V102.98C90.272 102.976 90.2698 102.971 90.2656 102.965C90.26 102.959 90.2544 102.957 90.2488 102.957H86.5308V98.2415Z" fill="white"/>
</svg>
